# xmcd CD database file
#
# Track frame offsets:
#	150
#	20938
#	34727
#	53798
#	77897
#	98304
#	114711
#	125168
#	147207
#	161794
#	178258
#	200607
#	222257
#	239675
#	253031
#	273436
#
# Disc length: 3950 seconds
#
# Revision: 19
# Processed by: cddbd v1.5.2PL0 Copyright (c) Steve Scherf et al.
# Submitted via: CDex 1.51
#
DISCID=f50f6c10
DTITLE=Sting - ...All This Time
DYEAR=2001
DGENRE=Pop
TTITLE0=Fragile
TTITLE1=A Thousand Years
TTITLE2=Perfect Love.....Gone Wrong
TTITLE3=All This Time
TTITLE4=The Hounds Of Winter
TTITLE5=Mad About You
TTITLE6=Don't Stand So Close To Me
TTITLE7=When We Dance
TTITLE8=Dienda
TTITLE9=Roxanne
TTITLE10=Set Them Free
TTITLE11=Brand New Day
TTITLE12=Fields Of Gold
TTITLE13=Moon Over Bourbon Street
TTITLE14=If I Ever Lose My Faith In You
TTITLE15=Every Breath You Take
EXTD=YEAR: 2001
EXTT0=
EXTT1=
EXTT2=
EXTT3=
EXTT4=
EXTT5=
EXTT6=
EXTT7=
EXTT8=
EXTT9=
EXTT10=
EXTT11=
EXTT12=
EXTT13=
EXTT14=
EXTT15=
PLAYORDER=
